<?xml version="1.0" standalone="yes"?><svg version="1.1" xmlns="http://www.w3.org/2000/svg" xmlns:xlink="http://www.w3.org/1999/xlink" xmlns:ev="http://www.w3.org/2001/xml-events" viewBox="0 0 319 319" shape-rendering="crispEdges"><rect width="319" height="319" x="0" y="0" fill="##666"/><path d="M0 0h7v7h-7zM12 0h3v1h1v1h-3v-1h-1zM19 0h2v1h-1v2h-2v-1h1zM22 0h7v7h-7zM1 1v5h5v-5zM10 1h1v1h-1zM23 1v5h5v-5zM2 2h3v3h-3zM8 2h2v1h-1v1h-1zM11 2h2v1h-1v1h-1v1h-1v1h-1v-2h1v-1h1zM16 2h1v1h-1zM24 2h3v3h-3zM17 3h1v1h-1zM20 3h1v1h-1zM12 4h1v1h1v-1h1v1h-1v1h-1v1h-1zM18 4h2v1h-2zM20 5h1v3h-1zM8 6h1v1h-1zM10 6h1v1h-1zM14 6h1v4h-1v-1h-1v-1h1zM16 6h1v1h-1zM18 6h1v2h-2v-1h1zM9 7h1v1h-1zM3 8h2v1h1v-1h2v1h-2v1h4v-2h2v1h-1v2h-3v2h-2v1h-2v-1h1v-1h-1v-1h-1zM16 8h1v1h-1zM19 8h1v1h-1zM25 8h2v1h-1v1h-1v1h-1v-2h1zM0 9h2v1h-2zM17 9h2v1h-2zM27 9h1v1h-1zM12 10h1v1h2v1h2v-1h2v-1h4v1h-2v1h-4v3h-1v-2h-3v1h-1v-2h-1v-1h1zM0 11h2v1h1v1h-2v1h-1zM6 11v1h1v-1zM28 11h1v1h-1zM9 12h1v2h-1zM21 12h2v2h-1v-1h-1zM25 12h1v1h-1zM27 12h1v1h-1zM18 13h1v1h-1zM24 13h1v1h-1zM26 13h1v1h-1zM28 13h1v2h-1zM1 14h2v1h2v3h-1v-2h-1v1h-1v-2h-1zM6 14h2v1h-2zM10 14h1v1h-1zM13 14h1v1h2v1h2v1h-2v2h-2v1h-1v1h1v1h-2v2h-1v-1h-3v-2h-3v-1h3v-1h-2v-1h1v-1h-1v-1h1v1h1v-2h1v3h-1v1h1v1h-1v1h1v-1h1v1h-1v1h2v-4h-1v-1h1v-1h1v-1h1zM19 14h2v1h-2zM23 14h1v1h-1zM25 14h1v1h1v1h-1v1h1v1h-1v1h-1v-1h-1v-1h-1v-1h1v-1h1zM21 15h1v2h-1zM13 16v1h-1v2h1v-2h1v-1zM19 16h1v1h-1zM24 16v1h1v-1zM28 16h1v1h-1zM0 17h2v1h1v1h-1v2h-2zM14 17v1h1v-1zM18 17h1v1h-1zM22 17h1v1h-1zM17 18h1v1h-1zM19 18h1v1h4v1h2v-1h2v-1h1v3h-2v2h-1v-1h-1v1h1v1h-1v1h-1v1h1v-1h2v-2h2v1h-1v2h1v2h-1v-1h-1v1h-2v1h-4v-1h-1v-2h2v2h2v-1h-1v-2h-5v1h-1v-2h-1v-1h-2v-1h1v-1h1v1h1v-1h2zM3 19h1v1h-1zM16 19h1v1h-1zM19 21v1h-1v1h-1v1h2v-2h1v-1zM21 21v3h3v-3zM0 22h7v7h-7zM22 22h1v1h-1zM1 23v5h5v-5zM13 23h1v3h-1v-1h-1v-1h1zM2 24h3v3h-3zM8 24h2v1h-1v1h-1zM15 24h1v2h1v2h-1v-1h-1zM10 25h2v1h-1v1h-1zM12 26h1v1h2v2h-1v-1h-2zM18 26h1v2h-1zM25 26v1h1v-1zM9 28h3v1h-3zM17 28h1v1h-1zM19 28h1v1h-1z" fill="#black" transform="translate(0,0) scale(11)"/></svg>